#!OML:ASF F:\VICON\USERDATA\INSTALL\rory3\rory3.ASF
:FULLY-SPECIFIED
:DEGREES
2777
root -2.96041 17.5257 -6.98325 0.915552 39.0325 -0.360305
lowerback 4.29891 -5.79713 -10.0493
upperback 1.30365 -8.12736 2.2175
thorax 0.690183 -4.17284 8.10494
lowerneck -21.94 -6.96956 -11.832
upperneck 25.8564 -7.4632 5.98949
head 13.0176 -3.66545 2.95818
rclavicle -6.26172e-015 1.53064e-014
rhumerus 43.3984 -7.34271 -49.5639
rradius 50.1689
rwrist 50.4249
rhand -65.0678 -29.5166
rfingers 7.12502
rthumb -36.9618 -55.5909
lclavicle -6.26172e-015 1.53064e-014
lhumerus 67.5536 -14.8996 57.6812
lradius 31.998
lwrist -37.2983
lhand -51.8442 57.8943
lfingers 7.12502
lthumb -24.3581 446.366
rfemur -29.8288 -9.79809 19.3363
rtibia 33.1598
rfoot -9.95653 -12.5654
rtoes 9.73997
lfemur -1.25941 10.3077 -23.9875
ltibia 26.266
lfoot -21.3283 14.7328
ltoes -11.3456
2778
root -2.94514 17.518 -6.95547 1.07851 38.9135 -0.280179
lowerback 4.26163 -5.83901 -9.94978
upperback 1.16528 -8.18146 2.20002
thorax 0.559575 -4.18594 8.03605
lowerneck -21.8579 -6.94075 -11.9017
upperneck 25.8064 -7.42813 6.06224
head 12.9837 -3.64872 3.00585
rclavicle 2.04997e-015 1.25234e-014
rhumerus 43.459 -7.28321 -49.6271
rradius 49.962
rwrist 50.4158
rhand -65.4113 -28.8397
rfingers 7.12502
rthumb -37.2866 -54.8296
lclavicle 2.04997e-015 1.25234e-014
lhumerus 67.415 -14.7711 57.6448
lradius 31.9902
lwrist -37.4003
lhand -51.6076 57.3646
lfingers 7.12502
lthumb -24.1313 445.867
rfemur -29.9593 -10.5344 19.7407
rtibia 33.5996
rfoot -10.8132 -12.9967
rtoes 8.84857
lfemur -1.15276 10.263 -24.0718
ltibia 26.0525
lfoot -21.3286 14.8842
ltoes -11.4504
2779
root -2.93025 17.519 -6.92391 1.2264 38.7784 -0.116781
lowerback 4.2825 -5.85855 -9.92919
upperback 1.05109 -8.21374 2.15343
thorax 0.424291 -4.18909 7.98606
lowerneck -21.9204 -6.95195 -11.9711
upperneck 25.8465 -7.43579 6.1338
head 13.0201 -3.64887 3.04332
rclavicle 5.5287e-014 -2.10712e-014
rhumerus 43.5306 -7.25 -49.6199
rradius 49.6747
rwrist 50.3738
rhand -65.6235 -28.9421
rfingers 7.12502
rthumb -37.4872 -54.879
lclavicle 5.5287e-014 -2.10712e-014
lhumerus 67.3134 -14.6505 57.6026
lradius 31.884
lwrist -37.6812
lhand -51.28 56.6465
lfingers 7.12502
lthumb -23.8172 445.19
rfemur -29.9996 -11.0072 19.9301
rtibia 33.9987
rfoot -11.6409 -13.6837
rtoes 8.73837
lfemur -0.973977 10.3954 -24.1732
ltibia 25.832
lfoot -21.2534 14.9987
ltoes -12.105
2780
root -2.91273 17.5228 -6.88841 1.34095 38.6285 0.0104267
lowerback 4.11071 -5.85724 -9.91766
upperback 0.994915 -8.19694 2.1121
thorax 0.449359 -4.17903 7.91938
lowerneck -21.848 -6.95726 -11.9685
upperneck 25.8281 -7.46488 6.16873
head 13.0026 -3.65807 3.05221
rclavicle -5.71506e-014 1.56046e-014
rhumerus 43.5754 -7.25233 -49.4798
rradius 49.3155
rwrist 50.2907
rhand -65.2963 -28.0095
rfingers 7.12502
rthumb -37.1779 -54.0278
lclavicle -5.71506e-014 1.56046e-014
lhumerus 67.281 -14.5987 57.5523
lradius 31.731
lwrist -37.7302
lhand -51.0834 55.747
lfingers 7.12502
lthumb -23.6286 444.315
rfemur -29.9908 -11.4333 20.1115
rtibia 34.346
rfoot -12.4672 -14.4199
rtoes 9.48023
lfemur -0.724502 10.4526 -24.2436
ltibia 25.5564
lfoot -21.2345 15.0982
ltoes -11.9612
2781
root -2.89403 17.5276 -6.85562 1.48345 38.4951 0.134892
lowerback 3.88219 -5.8573 -9.92555
upperback 0.991337 -8.17477 2.12056
thorax 0.57082 -4.17459 7.90507
lowerneck -21.9398 -6.99486 -12.0248
upperneck 25.8219 -7.49942 6.2098
head 13.0271 -3.67154 3.06911
rclavicle 7.46064e-014 -2.5842e-015
rhumerus 43.8148 -7.35436 -49.3149
rradius 48.8105
rwrist 50.2532
rhand -64.9923 -26.7824
rfingers 7.12502
rthumb -36.8904 -52.8751
lclavicle 7.46064e-014 -2.5842e-015
lhumerus 67.34 -14.4418 57.5868
lradius 31.575
lwrist -37.6654
lhand -50.8739 55.0065
lfingers 7.12502
lthumb -23.4276 443.6
rfemur -30.0008 -11.847 20.2811
rtibia 34.6459
rfoot -13.1714 -15.2164
rtoes 10.5239
lfemur -0.477536 10.2953 -24.3572
ltibia 25.2176
lfoot -21.2865 15.2205
ltoes -11.1422
2782
root -2.87771 17.5309 -6.82639 1.63528 38.3996 0.213461
lowerback 3.72375 -5.89392 -9.84272
upperback 0.963705 -8.20599 2.13004
thorax 0.626212 -4.19167 7.85096
lowerneck -22.027 -7.04431 -12.0253
upperneck 25.736 -7.54437 6.17338
head 13.0129 -3.69376 3.04305
rclavicle -2.55314e-015 3.1408e-014
rhumerus 44.0628 -7.35591 -49.1237
rradius 48.2748
rwrist 50.1233
rhand -64.829 -26.6764
rfingers 7.12502
rthumb -36.7358 -52.8087
lclavicle -2.55314e-015 3.1408e-014
lhumerus 67.3765 -14.1948 57.4845
lradius 31.4317
lwrist -37.5814
lhand -50.6121 54.2752
lfingers 7.12502
lthumb -23.1764 442.901
rfemur -30.0268 -12.1556 20.4411
rtibia 34.8709
rfoot -13.818 -16.0312
rtoes 11.3378
lfemur -0.325675 10.105 -24.4598
ltibia 24.9056
lfoot -21.1192 15.5236
ltoes -11.4386
2783
root -2.86109 17.5369 -6.7889 1.6578 38.2231 0.156693
lowerback 3.6621 -5.89931 -9.60636
upperback 0.854721 -8.20301 2.10932
thorax 0.508283 -4.17756 7.70008
lowerneck -21.9403 -7.04092 -11.9395
upperneck 25.68 -7.55802 6.10049
head 12.9664 -3.70235 2.9985
rclavicle 1.94436e-014 -7.35503e-015
rhumerus 44.1071 -7.28745 -48.9946
rradius 47.7471
rwrist 49.9996
rhand -64.3526 -26.2456
rfingers 7.12502
rthumb -36.2849 -52.4917
lclavicle 1.94436e-014 -7.35503e-015
lhumerus 67.27 -14.1055 57.1779
lradius 31.3359
lwrist -37.3935
lhand -50.3779 53.3726
lfingers 7.12502
lthumb -22.9517 442.026
rfemur -29.965 -12.3155 20.6798
rtibia 35.0348
rfoot -14.3322 -16.8177
rtoes 11.7923
lfemur -0.113933 10.0219 -24.4184
ltibia 24.619
lfoot -20.7832 15.9248
ltoes -12.7543
